<svg width="46" height="46" viewBox="0 0 46 46" fill="none" xmlns="http://www.w3.org/2000/svg">
<circle cx="23" cy="23" r="23" fill="#FC9910" fill-opacity="0.4"/>
<path d="M13.6 34C12.885 34 12.2731 33.7432 11.7644 33.2296C11.2557 32.7159 11.0009 32.0977 11 31.375V15.625C11 14.9031 11.2548 14.2854 11.7644 13.7717C12.274 13.2581 12.8859 13.0009 13.6 13H34.4C35.115 13 35.7273 13.2572 36.2369 13.7717C36.7465 14.2862 37.0009 14.904 37 15.625V31.375C37 32.0969 36.7456 32.7151 36.2369 33.2296C35.7282 33.7441 35.1159 34.0009 34.4 34H13.6ZM24 24.8125L34.4 18.25V15.625L24 22.1875L13.6 15.625V18.25L24 24.8125Z" fill="#FC9910"/>
</svg>
