<svg width="46" height="46" viewBox="0 0 46 46" fill="none" xmlns="http://www.w3.org/2000/svg">
<circle cx="23" cy="23" r="23" fill="#FC9910" fill-opacity="0.4"/>
<path d="M29.4167 33.8333C28.514 33.8333 27.7466 33.5173 27.1147 32.8854C26.4827 32.2534 26.1667 31.4861 26.1667 30.5833C26.1667 30.475 26.1938 30.2222 26.248 29.825L18.6376 25.3833C18.3487 25.6541 18.0147 25.8665 17.6355 26.0203C17.2563 26.1741 16.8501 26.2507 16.4167 26.25C15.514 26.25 14.7466 25.934 14.1147 25.302C13.4827 24.6701 13.1667 23.9027 13.1667 23C13.1667 22.0972 13.4827 21.3298 14.1147 20.6979C14.7466 20.0659 15.514 19.75 16.4167 19.75C16.8501 19.75 17.2563 19.8269 17.6355 19.9807C18.0147 20.1345 18.3487 20.3465 18.6376 20.6166L26.248 16.175C26.2119 16.0486 26.1895 15.9269 26.1808 15.8099C26.1722 15.6929 26.1675 15.5618 26.1667 15.4166C26.1667 14.5138 26.4827 13.7465 27.1147 13.1145C27.7466 12.4826 28.514 12.1666 29.4167 12.1666C30.3195 12.1666 31.0869 12.4826 31.7188 13.1145C32.3508 13.7465 32.6667 14.5138 32.6667 15.4166C32.6667 16.3194 32.3508 17.0868 31.7188 17.7187C31.0869 18.3507 30.3195 18.6666 29.4167 18.6666C28.9834 18.6666 28.5772 18.5897 28.198 18.4359C27.8188 18.282 27.4848 18.0701 27.1959 17.8L19.5855 22.2416C19.6216 22.368 19.6444 22.4901 19.6537 22.6078C19.6631 22.7255 19.6675 22.8562 19.6667 23C19.666 23.1437 19.6617 23.2748 19.6537 23.3932C19.6458 23.5117 19.6231 23.6333 19.5855 23.7583L27.1959 28.2C27.4848 27.9291 27.8188 27.7172 28.198 27.564C28.5772 27.4109 28.9834 27.334 29.4167 27.3333C30.3195 27.3333 31.0869 27.6493 31.7188 28.2812C32.3508 28.9132 32.6667 29.6805 32.6667 30.5833C32.6667 31.4861 32.3508 32.2534 31.7188 32.8854C31.0869 33.5173 30.3195 33.8333 29.4167 33.8333Z" fill="#FC9910"/>
</svg>
