<svg width="46" height="46" viewBox="0 0 46 46" fill="none" xmlns="http://www.w3.org/2000/svg">
<circle cx="23" cy="23" r="23" fill="#FC9910" fill-opacity="0.4"/>
<path fill-rule="evenodd" clip-rule="evenodd" d="M17.2222 15.7778C17.2222 14.2454 17.831 12.7758 18.9145 11.6923C19.998 10.6087 21.4676 10 23 10C24.5324 10 26.002 10.6087 27.0855 11.6923C28.169 12.7758 28.7778 14.2454 28.7778 15.7778C28.7778 17.3101 28.169 18.7797 27.0855 19.8633C26.002 20.9468 24.5324 21.5556 23 21.5556C21.4676 21.5556 19.998 20.9468 18.9145 19.8633C17.831 18.7797 17.2222 17.3101 17.2222 15.7778ZM17.2222 24.4444C15.3068 24.4444 13.4698 25.2054 12.1153 26.5598C10.7609 27.9142 10 29.7512 10 31.6667C10 32.8159 10.4565 33.9181 11.2692 34.7308C12.0819 35.5435 13.1841 36 14.3333 36H31.6667C32.8159 36 33.9181 35.5435 34.7308 34.7308C35.5435 33.9181 36 32.8159 36 31.6667C36 29.7512 35.2391 27.9142 33.8847 26.5598C32.5302 25.2054 30.6932 24.4444 28.7778 24.4444H17.2222Z" fill="#FC9910"/>
</svg>
