<svg width="40" height="40" viewBox="0 0 40 40" fill="none" xmlns="http://www.w3.org/2000/svg">
<circle cx="20" cy="20" r="19.5" stroke="#FC9910"/>
<path d="M10 24C10 21.172 10 19.757 10.879 18.879C11.757 18 13.172 18 16 18H24C26.828 18 28.243 18 29.121 18.879C30 19.757 30 21.172 30 24C30 26.828 30 28.243 29.121 29.121C28.243 30 26.828 30 24 30H16C13.172 30 11.757 30 10.879 29.121C10 28.243 10 26.828 10 24Z" stroke="#FC9910" stroke-width="2"/>
<path opacity="0.5" d="M14 18V16C14 14.4087 14.6321 12.8826 15.7574 11.7574C16.8826 10.6321 18.4087 10 20 10C21.5913 10 23.1174 10.6321 24.2426 11.7574C25.3679 12.8826 26 14.4087 26 16V18" stroke="#FC9910" stroke-width="2" stroke-linecap="round"/>
</svg>
