<svg width="32" height="32" viewBox="0 0 32 32" fill="none" xmlns="http://www.w3.org/2000/svg">
<path d="M27 2.66534C28.288 2.66534 29.3333 3.71068 29.3333 4.99868V9.05601C29.3331 9.72584 29.1495 10.3828 28.8023 10.9557C28.4552 11.5285 27.9577 11.9953 27.364 12.3053L18.964 16.692C20.3124 17.3595 21.3954 18.4636 22.0368 19.8246C22.6782 21.1856 22.8404 22.7236 22.4969 24.1885C22.1535 25.6534 21.3246 26.959 20.145 27.8931C18.9654 28.8272 17.5046 29.3348 16 29.3333C14.4958 29.3342 13.0356 28.8263 11.8566 27.8923C10.6776 26.9583 9.84911 25.6531 9.50571 24.1887C9.16232 22.7243 9.32423 21.1868 9.96513 19.826C10.606 18.4653 11.6883 17.3613 13.036 16.6933L4.63596 12.3067C4.04202 11.9965 3.54443 11.5295 3.19724 10.9564C2.85005 10.3833 2.66653 9.72606 2.66663 9.05601V4.99868C2.66663 3.71068 3.71196 2.66534 4.99996 2.66534H27ZM16 17.9987C14.7623 17.9987 13.5753 18.4903 12.7001 19.3655C11.825 20.2407 11.3333 21.4277 11.3333 22.6653C11.3333 23.903 11.825 25.09 12.7001 25.9652C13.5753 26.8403 14.7623 27.332 16 27.332C17.2376 27.332 18.4246 26.8403 19.2998 25.9652C20.175 25.09 20.6666 23.903 20.6666 22.6653C20.6666 21.4277 20.175 20.2407 19.2998 19.3655C18.4246 18.4903 17.2376 17.9987 16 17.9987ZM21.3333 4.66534H10.6626V13.196L15.8453 15.9027C15.893 15.9277 15.9461 15.9407 16 15.9407C16.0538 15.9407 16.1069 15.9277 16.1546 15.9027L21.3333 13.1987V4.66534Z" fill="#3D2F3A"/>
</svg>
