<svg width="32" height="32" viewBox="0 0 32 32" fill="none" xmlns="http://www.w3.org/2000/svg">
<path d="M29.5293 24.3222L17.0773 31.2334C16.4799 31.565 15.5024 31.565 14.9051 31.2334L2.45305 24.3222C2.15437 24.1565 2.00505 23.9379 2.00505 23.7194H1.8728V8.28052H29.9774V23.7194C29.9774 23.9379 29.8281 24.1565 29.5293 24.3222Z" fill="#FC9910"/>
<path d="M29.9775 8.28058V23.7195C29.9775 23.938 29.8282 24.1565 29.5295 24.3223L17.0774 31.2335C16.7668 31.4058 16.3535 31.488 15.9442 31.4809C15.9538 23.75 16.1736 16.0093 15.9333 8.28052L29.9775 8.28058Z" fill="#FFB145"/>
<path d="M14.9052 15.7946L2.45316 8.88337C1.85578 8.5518 1.85578 8.0093 2.45316 7.67774L14.9052 0.766616C15.5025 0.435054 16.48 0.435054 17.0773 0.766616L29.5294 7.6778C30.1268 8.00937 30.1268 8.55187 29.5294 8.88343L17.0774 15.7946C16.48 16.1261 15.5025 16.1261 14.9052 15.7946Z" fill="#A37E9B"/>
<path d="M24.4432 4.63276C24.4425 4.70582 24.4222 4.77736 24.3844 4.83985C24.3465 4.90233 24.2925 4.95345 24.228 4.98782L9.30841 12.9406C9.28786 12.9516 9.26641 12.9607 9.24429 12.968L9.19385 12.9962V27.8381C9.19385 27.9088 9.17539 27.9783 9.14029 28.0397C9.10519 28.1011 9.05466 28.1523 8.99371 28.1882C8.93276 28.2241 8.8635 28.2434 8.79278 28.2443C8.72205 28.2452 8.65232 28.2276 8.59047 28.1933L6.09047 26.8058C6.02709 26.7706 5.97428 26.7191 5.9375 26.6566C5.90073 26.5942 5.88134 26.523 5.88135 26.4505V12.0077C5.88141 11.7599 5.93712 11.5152 6.04435 11.2918C6.15158 11.0684 6.3076 10.8718 6.50091 10.7168L6.51566 10.7053C6.54841 10.6796 6.57947 10.6571 6.61141 10.6355C6.65886 10.6033 6.70793 10.5735 6.75841 10.5463L21.2422 2.82576C21.302 2.79386 21.3689 2.77745 21.4367 2.77803C21.5045 2.77861 21.5711 2.79616 21.6304 2.82907L24.2341 4.27413C24.298 4.30959 24.3511 4.36162 24.3879 4.42473C24.4247 4.48784 24.4438 4.55971 24.4432 4.63276ZM25.819 10.9159C25.7245 10.8081 25.6163 10.7131 25.4972 10.6333C25.4894 10.6279 25.4816 10.6226 25.4724 10.6166C25.4337 10.5914 25.394 10.5679 25.3533 10.5461L10.8697 2.8257C10.8098 2.7938 10.7429 2.77739 10.6751 2.77797C10.6073 2.77855 10.5407 2.79609 10.4814 2.82901L7.87772 4.27407C7.81381 4.30951 7.76065 4.36154 7.72383 4.42466C7.68702 4.48779 7.66791 4.55967 7.66853 4.63275C7.66915 4.70582 7.68948 4.77738 7.72736 4.83987C7.76524 4.90236 7.81928 4.95347 7.88379 4.98782L22.8034 12.9406C22.8242 12.9517 22.8456 12.9608 22.8676 12.9681L22.918 12.9963V27.8381C22.918 27.9089 22.9364 27.9784 22.9715 28.0398C23.0066 28.1012 23.0572 28.1524 23.1181 28.1882C23.1791 28.2241 23.2483 28.2435 23.319 28.2444C23.3898 28.2453 23.4595 28.2277 23.5213 28.1934L26.0213 26.8058C26.0847 26.7706 26.1375 26.7192 26.1743 26.6567C26.2111 26.5942 26.2305 26.5231 26.2305 26.4506V12.0077C26.2303 11.6059 26.084 11.2179 25.819 10.9159Z" fill="#FFD4DE"/>
<path d="M20.9752 8.56772C20.9752 9.58716 19.7249 10.327 18.0022 10.327C17.2996 10.327 16.6758 10.2038 16.1832 9.98897C16.1203 9.96165 16.0521 9.94855 15.9836 9.95059C15.915 9.95263 15.8478 9.96977 15.7866 10.0008C15.2732 10.2599 14.5924 10.4109 13.8149 10.4109C12.0922 10.4109 10.8418 9.67103 10.8418 8.65159C10.8418 8.13834 11.1588 7.69603 11.6934 7.38322C11.904 7.26003 11.9925 6.99709 11.8882 6.77653C11.5071 5.97066 11.5194 5.21459 11.9867 4.74722C12.2288 4.50516 12.5603 4.37722 12.9455 4.37722C13.2161 4.37722 13.51 4.44116 13.8119 4.56122C13.9279 4.60749 14.0575 4.60627 14.1726 4.55783C14.2877 4.5094 14.3791 4.41763 14.4272 4.30234C14.7375 3.56166 15.2509 3.10547 15.8665 3.10547C16.4717 3.10547 16.9782 3.54616 17.29 4.26466C17.3935 4.50316 17.6667 4.61697 17.907 4.51778C18.2225 4.38759 18.5299 4.31797 18.8122 4.31797C19.2987 4.31797 19.6021 4.51916 19.7709 4.68797C20.2304 5.14741 20.2501 5.88572 19.8887 6.67616C19.7874 6.89791 19.8772 7.16028 20.0895 7.28022C20.6446 7.59384 20.9752 8.04378 20.9752 8.56772Z" fill="#FFB145"/>
</svg>
