<svg width="46" height="46" viewBox="0 0 46 46" fill="none" xmlns="http://www.w3.org/2000/svg">
<circle cx="23" cy="23" r="23" fill="#FC9910" fill-opacity="0.4"/>
<path d="M24 10C21.5075 10 19.1171 11.0092 17.3547 12.8056C15.5922 14.602 14.6021 17.0385 14.6021 19.5789V24.4067C14.6023 24.619 14.554 24.8284 14.4611 25.0184L12.156 29.7162C12.0434 29.9457 11.9902 30.2008 12.0015 30.4571C12.0128 30.7135 12.0882 30.9626 12.2206 31.1809C12.353 31.3992 12.5379 31.5793 12.7578 31.7043C12.9777 31.8292 13.2253 31.8948 13.477 31.8947H34.523C34.7747 31.8948 35.0223 31.8292 35.2422 31.7043C35.4621 31.5793 35.647 31.3992 35.7794 31.1809C35.9118 30.9626 35.9872 30.7135 35.9985 30.4571C36.0098 30.2008 35.9567 29.9457 35.844 29.7162L33.5402 25.0184C33.4469 24.8285 33.3981 24.6191 33.3979 24.4067V19.5789C33.3979 17.0385 32.4078 14.602 30.6453 12.8056C28.8829 11.0092 26.4925 10 24 10ZM24 36C23.1667 36.0004 22.3539 35.7375 21.6734 35.2473C20.9929 34.7571 20.4783 34.0639 20.2006 33.2632H27.7994C27.5217 34.0639 27.0071 34.7571 26.3266 35.2473C25.6461 35.7375 24.8333 36.0004 24 36Z" fill="#FC9910"/>
</svg>
